<?xml version="1.0" encoding="UTF-8" standalone="no"?>
<!-- Created with Inkscape (http://www.inkscape.org/) -->

<svg
   width="6079.9927mm"
   height="4098.9307mm"
   viewBox="0 0 6079.9927 4098.9306"
   version="1.1"
   id="svg1"
   xml:space="preserve"
   xmlns="http://www.w3.org/2000/svg"
   xmlns:svg="http://www.w3.org/2000/svg"><defs
     id="defs1" /><path
     style="fill:#d38d5f;stroke:none;stroke-width:2;stroke-dasharray:none"
     d="M 6079.9926,4098.9303 H 1.0356769e-8 v 0 V 0 0 H 6079.9926 v 0 z"
     id="path59" /><g
     id="layer2"
     style="display:inline"
     transform="translate(-0.13229999,-0.1323)"><path
       style="fill:#5aa02c;stroke:#000000;stroke-width:0.264583"
       d="m 410.1333,2160.1324 v -300.0004 0 h 69.9981 v 0 -79.9994 0 h -69.9981 v 0 -620.0008 6e-4 C 402.1268,964.0803 474.4151,773.2413 610.3006,631.694 746.1861,490.1466 933.9168,410.1324 1130.1323,410.1324 v 10e-5 h 999.998 v 0 l 599.9983,89.9999 v 0 c 202.3847,163.5403 320.0006,409.7986 320.0006,670 l 0.011,6e-4 v 409.9984 l -0.011,10e-4 c 0,240 -167.2801,414.7284 -280,499.9999 -93.9522,71.074 -149.9999,80 -389.9999,80 l 10e-4,10e-5 H 1160.1288 l 5e-4,-10e-5 c -359.5506,0 -671.0743,249.219 -750,600 z"
       id="path74" /><path
       d="m 4970.1322,3559.0681 c 174.8221,8.0109 345.3119,-55.842 471.86,-176.7242 126.5482,-120.8821 198.1382,-288.2703 198.1382,-463.2758 0,-175.0056 -71.59,-342.3938 -198.1382,-463.2759 -126.5481,-120.8822 -297.0379,-184.7351 -471.86,-176.7242 l 0.013,-1e-4 H 1150.1335 l -9e-4,1e-4 c -168.8705,1.3222 -330.3746,69.3333 -449.3193,189.213 -118.9447,119.8797 -185.689,281.9114 -185.689,450.7871 0,168.8756 66.7443,330.9073 185.689,450.787 118.9447,119.8797 280.4488,187.8908 449.3193,189.213 l 9e-4,0.01 h 3820.0117 z"
       style="fill:#5aa02c;stroke:#000000;stroke-width:0.264583"
       id="path118" /><path
       style="fill:#5aa02c;stroke:#000000;stroke-width:0.264583"
       d="M 5015.1241,2180.1323 H 3765.1266 l 0.01,10e-5 c -163.6535,0 -320.8915,-63.6496 -438.4631,-177.4889 -117.5721,-113.8392 -186.2594,-268.9427 -191.5372,-432.5111 l -0.01,4e-4 v -410.001 l 0.01,6e-4 c 0,-169.2808 67.5892,-331.5548 187.7573,-450.7841 120.168,-119.2292 282.9672,-185.5436 452.2428,-184.2159 l -0.01,-10e-5 h 110.0137 v 0 l 539.9891,-114.9998 v 0 64.9999 0 h 65.0082 v 0 -64.9999 0 h 334.9889 v 0 64.9999 0 h 65.0081 v 0 -64.9999 -10e-5 c 232.3584,-6.6592 457.5237,80.9878 624.2311,242.986 166.7074,161.9982 260.7689,384.5602 260.7689,617.014 l 0.01,-10e-5 v 99.9993 0 h -20.0025 v 0 35.0017 0 h 20.0025 v 0 1179.9993 0 h -120.015 l 0.01,-2e-4 c -117.1597,-247.3199 -366.333,-404.9999 -639.9998,-405 z"
       id="path50" /></g><g
     id="layer1"
     transform="translate(2935.2213,1901.0339)"
     style="fill:none;stroke:#000000;stroke-width:2;stroke-dasharray:none"><path
       d="m -1785.2213,937.90181 c -26.6667,429.99999 226.6667,644.99999 760,644.99999 h 6e-4 2438.8762 v 0 h 349.9908 v 0 c 170.194,-1e-4 323.5634,-102.7105 388.3647,-260.0852 h -0.01 l 97.79,-284.9113 v 0 l -170.0213,-70.00082 170.0213,70.00082 214.286,-520.47246 44.6617,-93.77363 216.0323,-524.68991 -169.9948,-70.00081 -206.9836,502.67658 -43.9737,92.12791 -224.0492,544.1315 v 0 l -131.1804,271.14502 h -0.01 c -30.8577,74.9403 -103.8907,123.85 -184.9355,123.8501 v 0 c -75.0001,0 -110.5241,-37.4772 -140,-70 -24.2912,-26.802 -44.4746,-50.2394 -80,-70 -40.1849,-22.3523 -100,-40 -130.0001,-40 h 0.011 -2438.8762 -6e-4 c -240,0 -373.3333,-81.6667 -400,-244.99998 z"
       style="fill:#808080;stroke:#000000;stroke-width:2;stroke-dasharray:none"
       id="path114" /><path
       style="fill:#808080;stroke:#000000;stroke-width:2;stroke-dasharray:none"
       d="m 2724.7786,-101.03382 c 69.6196,-109.78677 82.0584,-256.00414 40,-395 -43.1911,-142.73848 -143.854,-277.86128 -269.9999,-319.99998 -120.4306,-40.2295 -264.0875,4.2903 -380.0001,35 -91.857,24.3364 -166.2906,40 -236.2907,40 l -0.012,-6e-4 h -99.986 v 6e-4 c -27.6142,-10e-5 -49.9999,-22.3858 -49.9999,-50 v 0 -60.0022 0 c 0,-27.6142 22.3857,-49.9999 49.9999,-50 v 6e-4 h 194.9979 v 0 -440.0005 0 h -900.0067 v 0 440.0005 0 h 194.9979 l 0.01,-6e-4 c 27.6143,-1e-4 50.0002,22.3857 50.0002,50 v 0 60.0022 0 c 0,27.6143 -22.3859,50.0001 -50.0002,50 l -0.01,-6e-4 H 699.78364 v 0 l -500.00958,30.0011 -84.98417,9.99859 -400.02353,-29.99849 0.0127,-6e-4 c -70.44649,0 -139.70838,-18.1233 -201.12641,-52.6274 l 0.001,-2e-4 -452.37405,-280.7759 v -3e-4 c -18.2089,-11.3018 -31.1218,-29.4369 -35.8448,-50.3411 v 0 c -32.2238,-142.6234 -143.4217,-254.1068 -285.962,-286.6963 -142.5403,-32.5895 -291.1356,19.4966 -382.1351,133.947 v 0 c -18.0227,22.6672 -46.8881,33.8249 -75.4709,29.1727 v 0 c -148.7034,-24.2035 -300.772,14.5678 -419.7341,107.0153 -118.9621,92.4474 -194.0863,230.2314 -207.3551,380.3062 v 0 c 0,40 -12.8194,61.10096 -25,79.99998 -9.4079,14.59699 -18.4349,27.88045 -30,40 -15.2836,16.01632 -35,30 -35,80 v -6.6e-4 340.00016 0 h 420.0022 v 0 -340.00016 6.6e-4 c 0,-50 -19.7164,-63.98368 -35,-80 -11.5652,-12.11955 -20.5921,-25.40301 -30,-40 -12.1807,-18.89902 -25,-39.99998 -25,-79.99998 v 0 c 16.5509,-157.7545 150.9938,-276.6542 309.5884,-273.7962 v 0 c 37.8546,0.6822 70.0477,27.8071 77.1417,64.9973 v 0 c 4.649,24.3723 11.6739,48.2308 20.9741,71.2336 v 0 c 9.0661,22.4241 7.5002,47.746 -4.2597,68.8822 v 0 c -65.7516,118.17582 -101.2546,250.77933 -103.3464,385.99925 v 0 c -0.1269,8.1998 1.0078,16.37035 3.3643,24.22528 l -6e-4,-6.1e-4 26.5377,88.45814 v 0 580.00106 l -9.9986,118.9355 v 560.0012 0 h 179.9986 v 0 h 180.0014 v 0 -560.0012 l -10.0013,-118.9355 v -580.00106 0 l 26.7759,-89.25189 5e-4,-3.2e-4 c 2.0487,-6.82916 3.1754,-13.90156 3.3499,-21.02927 v 0 c 1.5278,-62.38679 16.9389,-123.64909 45.1128,-179.33281 v 0 c 12.0272,-23.77088 35.098,-39.99523 61.5358,-43.27443 v 0 c 25.3489,-3.14412 50.3161,-8.83609 74.523,-16.98955 v 0 c 20.31,-6.84088 42.5154,-5.24681 61.64,4.42497 v 8e-5 l 475.12025,240.28135 2.1e-4,-3.4e-4 c 122.74072,68.95474 261.15712,105.17324 401.9409,105.17324 l -0.0127,-10e-4 400.02354,-29.99848 84.98416,-10.00125 500.00958,30.0011 v 0 H 1878.4755 v 0 l 649.2081,56.27687 v 1.9e-4 c 23.2604,2.01637 39.8571,23.44273 35.9942,46.46856 v 0 c -3.3329,19.86835 -6.546,39.0693 -8.9013,57.254 z"
       id="path174" /><path
       d="m -1485.2213,-1031.0338 c 0,77.31991 62.6801,139.99991 140,139.99991 77.3199,0 140,-62.68 140,-139.99991 0,-77.3199 -62.6801,-139.9999 -140,-139.9999 -77.3199,0 -140,62.68 -140,139.9999 z"
       style="fill:#5aa02c;fill-opacity:1;stroke:#000000;stroke-width:2;stroke-dasharray:none"
       id="path54" /><path
       d="m 1878.4879,-536.03381 c 118.177,-20.83777 197.6446,-24.99553 288.7917,-46.83681 86.4465,-20.71486 183.3991,-57.33626 260.9633,-33.98237 67.256,20.25018 119.9346,85.59358 140.7851,160.81918 v 0 c -26.5044,-15.13318 -55.9706,-24.34951 -86.3743,-27.01584 v -1.3e-4 l -604.176,-52.98282 v 0 H 699.78539 Z"
       style="fill:#5aa02c;fill-opacity:1;stroke:#000000;stroke-width:2;stroke-dasharray:none"
       id="path99" /></g><g
     id="layer3"
     transform="translate(-0.13229999,-0.1323)"><path
       style="fill:none;stroke:#000000;stroke-width:2;stroke-dasharray:none"
       d="m 1330.1318,2839.0691 v -560.0012 -118.9355 -580.001"
       id="path52" /><path
       d="m 1423.6586,1152.6795 a 620,620 0 0 0 -93.5263,327.4529"
       style="fill:none;stroke:#000000;stroke-width:2;stroke-dasharray:none"
       id="path55" /><path
       style="fill:none;stroke:#000000;stroke-width:2;stroke-dasharray:none"
       d="m 1330.1318,1580.1314 v -99.9993"
       id="path56" /><path
       style="fill:none;stroke:#000000;stroke-width:2;stroke-dasharray:none"
       d="M 4349.0091,3284.0665 H 1910.1329"
       id="path57" /><path
       style="fill:none;stroke:#000000;stroke-width:2;stroke-dasharray:none"
       d="M 1500.1319,1580.1314 H 1160.1318"
       id="path82" /><path
       style="fill:none;stroke:#000000;stroke-width:2;stroke-dasharray:none"
       d="M 4248.8379,560.1325 V 790.1332"
       id="path167" /><path
       style="fill:none;stroke:#000000;stroke-width:2;stroke-dasharray:none"
       d="M 2348.5977,1296.2308 1869.0881,1026.8479"
       id="path171" /><path
       d="m 2348.5985,1296.2321 a 615.63659,615.63659 0 0 0 301.5338,78.9003"
       style="fill:none;stroke:#000000;stroke-width:2;stroke-dasharray:none"
       id="path172" /><path
       style="fill:none;stroke:#000000;stroke-width:2;stroke-dasharray:none"
       d="m 710.1311,1690.1319 v -334.473"
       id="path141" /><path
       style="fill:none;stroke:#000000;stroke-width:2;stroke-dasharray:none"
       d="m 3635.1368,1365.1336 h -500.0095 l -84.9842,9.9986 h -400.0235"
       id="path159" /><path
       d="m 1910.1323,3284.0681 q -580,0 -580,-445.0001"
       style="fill:none;stroke:#000000;stroke-width:2;stroke-dasharray:none"
       id="path161" /><path
       style="fill:none;stroke:#000000;stroke-width:2;stroke-dasharray:none"
       d="M 4458.8377,560.1325 V 790.1332"
       id="path165" /><path
       style="fill:none;stroke:#000000;stroke-width:2;stroke-dasharray:none"
       d="M 4668.8374,560.1325 V 790.1332"
       id="path166" /></g></svg>
